<?xml version="1.0" encoding="UTF-8" standalone="no"?>
<!-- Created with Inkscape (http://www.inkscape.org/) -->

<svg
   xmlns:dc="http://purl.org/dc/elements/1.1/"
   xmlns:cc="http://creativecommons.org/ns#"
   xmlns:rdf="http://www.w3.org/1999/02/22-rdf-syntax-ns#"
   xmlns:svg="http://www.w3.org/2000/svg"
   xmlns="http://www.w3.org/2000/svg"
   xmlns:sodipodi="http://sodipodi.sourceforge.net/DTD/sodipodi-0.dtd"
   xmlns:inkscape="http://www.inkscape.org/namespaces/inkscape"
   width="2.8706055in"
   height="0.74261379in"
   viewBox="0 0 72.913379 18.86239"
   version="1.1"
   id="svg8"
   inkscape:version="0.92.2 (5c3e80d, 2017-08-06)"
   sodipodi:docname="logo.svg">
  <defs
     id="defs2" />
  <sodipodi:namedview
     id="base"
     pagecolor="#ffffff"
     bordercolor="#666666"
     borderopacity="1.0"
     inkscape:pageopacity="0.0"
     inkscape:pageshadow="2"
     inkscape:zoom="1.4"
     inkscape:cx="197.99395"
     inkscape:cy="48.384284"
     inkscape:document-units="mm"
     inkscape:current-layer="layer1"
     showgrid="false"
     inkscape:window-width="1366"
     inkscape:window-height="705"
     inkscape:window-x="-8"
     inkscape:window-y="-8"
     inkscape:window-maximized="1"
     units="in"
     showborder="true"
     inkscape:pagecheckerboard="false"
     width="8.25in"
     fit-margin-top="0"
     fit-margin-left="0"
     fit-margin-right="0"
     fit-margin-bottom="0" />
  <metadata
     id="metadata5">
    <rdf:RDF>
      <cc:Work
         rdf:about="">
        <dc:format>image/svg+xml</dc:format>
        <dc:type
           rdf:resource="http://purl.org/dc/dcmitype/StillImage" />
        <dc:title></dc:title>
      </cc:Work>
    </rdf:RDF>
  </metadata>
  <g
     inkscape:label="Layer 1"
     inkscape:groupmode="layer"
     id="layer1"
     transform="translate(-0.4569672,-0.51921537)">
    <g
       aria-label="Sample"
       transform="matrix(0.26458333,0,0,0.26458333,-31.787797,-22.300595)"
       style="font-style:normal;font-variant:normal;font-weight:normal;font-stretch:normal;font-size:74.66666412px;line-height:1.25;font-family:'Brush Script MT';-inkscape-font-specification:'Brush Script MT';letter-spacing:0px;word-spacing:0px;fill:#000000;fill-opacity:1;stroke:none"
       id="flowRoot4504">
      <path
         d="m 159.53646,119.60748 q -0.91146,-1.67709 -2.73438,-3.02604 -1.82291,-1.34896 -4.11979,-2.15105 -2.26042,-0.83854 -4.73958,-1.23958 -7.36459,-1.09375 -13.74479,-4.77604 -0.54688,-0.29167 -1.16667,-1.23958 -0.61979,-0.94792 -0.61979,-1.82292 0,-3.20833 1.05729,-6.416667 1.09375,-3.244792 2.77083,-5.067708 2.69792,-3.026042 9.69792,-5.286458 7.03646,-2.260417 15.82292,-2.260417 5.25,0 8.09375,0.802083 2.8802,0.802084 2.8802,2.479167 0,2.734375 -0.76562,4.229166 -0.72917,1.494792 -1.60417,2.005209 -0.83854,0.473958 -2.98958,1.3125 -2.29688,0.802083 -4.01042,1.677083 -1.67708,0.875 -2.88021,1.677082 -1.20312,0.80208 -1.49479,0.80208 -0.36458,0 -0.36458,-0.29166 0,-0.61979 1.27604,-1.859377 1.3125,-1.276042 3.20833,-2.223958 2.00521,-1.057292 2.00521,-1.348959 0,-0.473958 -2.22396,-0.473958 -6.74479,0 -12.46875,1.203125 -5.72395,1.203125 -9.04166,3.171875 -3.28125,1.968752 -3.28125,4.010412 0,1.27605 1.34896,1.82292 1.38541,0.51042 6.05208,1.75 4.66667,1.23958 8.34896,2.84375 5.28646,2.26042 7.83854,4.70313 2.55208,2.4427 2.55208,5.46875 0,2.07812 -1.02083,4.1927 -0.98438,2.07813 -2.91667,3.82813 -1.93229,1.75 -4.44791,2.88021 -2.15105,0.91146 -5.4323,1.71354 -3.24479,0.80208 -7.07291,1.23958 -3.79167,0.47396 -7.25521,0.47396 -6.38021,0 -10.28125,-1.20312 -3.86458,-1.20313 -3.86458,-3.64584 0,-1.09375 1.3125,-3.39062 1.3125,-2.33334 3.09895,-3.13542 1.56771,-0.61979 3.02605,-0.69271 1.45833,-0.10937 1.45833,0.32813 0,0.10937 -0.10938,0.21875 -0.10937,0.10937 -0.2552,0.18229 -0.14584,0.0729 -0.29167,0.14583 -0.72917,0.29167 -1.20313,0.47396 -0.4375,0.14583 -0.72916,0.32813 Q 128,124.16477 128,124.45644 q 0,0.76562 7.54687,0.76562 6.5625,0 10.75521,-0.47396 4.19271,-0.47396 7.40104,-1.71354 3.20834,-1.23958 5.83334,-3.42708 z"
         style="font-size:74.66666412px;fill:#3da7eb;fill-opacity:1"
         id="path4570" />
      <path
         d="m 174.33854,112.13352 q 5.54167,-5.03125 10.75521,-7.47396 5.21354,-2.44271 8.05729,-2.44271 0.76562,0 1.42187,0.65625 0.65625,0.61979 1.02084,1.45834 0.40104,0.83854 0.40104,1.23958 0,0.65625 -0.51042,0.98437 -0.51041,0.29167 -1.78646,0.72917 0.25521,0.58333 0.65625,1.49479 0.40105,0.91146 0.6198,1.49479 0.21875,0.54688 0.21875,0.98438 0,0.875 -1.78646,3.28125 -1.75,2.36979 -2.47917,3.5 -0.69271,1.13021 -0.69271,2.77083 0,2.69792 2.47917,2.69792 2.55208,0 7.98437,-4.77604 v 2.22396 q -9.22395,10.24479 -13.19791,10.24479 -1.42188,0 -2.04167,-0.94792 -0.58333,-0.91146 -0.58333,-2.73437 0,-2.88021 2.07812,-8.34896 -5.32291,5.90625 -7.91145,8.42187 -2.58855,2.47917 -4.26563,2.47917 -0.80208,0 -2.00521,-1.38542 -1.20312,-1.38541 -2.15104,-3.57291 -0.91146,-2.22396 -0.91146,-4.59375 0,-1.71355 0.32813,-2.84375 0.32812,-1.16667 1.27604,-2.3698 0.94792,-1.20312 3.02604,-3.17187 z m 17.46354,-4.01042 q -9.47917,4.33854 -13.52604,7.36459 -4.01042,3.02604 -4.01042,6.23437 0,1.16667 0.40105,1.93229 0.40104,0.72917 1.09375,0.72917 0.40104,0 1.42187,-0.51042 3.82813,-2.26041 7,-5.86979 3.17187,-3.64583 7.61979,-9.88021 z"
         style="font-size:74.66666412px;fill:#525252;fill-opacity:1"
         id="path4572" />
      <path
         d="m 217.06771,123.65435 q 5.03125,-4.44791 8.64062,-7.72916 3.60937,-3.31771 5.65104,-5.21355 2.07813,-1.89583 3.64583,-3.20833 1.56771,-1.3125 2.00521,-1.3125 0.83854,-0.0365 1.60417,1.75 0.76562,1.75 0.76562,2.80729 0,0.69271 -2.33333,3.28125 -2.29687,2.55209 -3.46354,4.08334 -1.13021,1.53125 -1.13021,3.20833 0,0.98437 0.65625,1.60417 0.65625,0.58333 1.56771,0.58333 1.05729,0 2.51562,-1.09375 1.4948,-1.09375 4.66667,-3.90104 v 2.58854 q -3.17187,2.98958 -5.76042,5.17708 -2.58854,2.15104 -4.52083,3.24479 -1.89583,1.0573 -3.17187,1.0573 -1.13021,0 -1.89584,-0.83855 -0.76562,-0.875 -0.76562,-2.15104 0,-1.23958 0.4375,-2.51562 0.4375,-1.27604 1.34896,-3.02604 0.91145,-1.75 2.40625,-4.19271 1.49479,-2.47917 2.73437,-4.52084 -3.71875,3.02605 -6.59896,5.83334 -2.88021,2.80729 -4.70312,4.92187 -1.82292,2.07813 -2.88021,3.28125 -2.04167,2.26042 -3.79167,2.26042 -1.89583,0 -1.89583,-2.69792 0,-1.09375 1.42188,-3.90104 1.42187,-2.84375 4.04687,-7.21875 0.21875,-0.29167 0.21875,-0.91146 0,-0.72916 -0.72917,-0.72916 -0.80208,0 -2.33333,1.53125 -1.49479,1.49479 -5.83333,6.30729 -1.20313,1.34896 -2.73438,3.53646 -1.49479,2.15104 -2.15104,2.8802 -0.65625,0.72917 -1.3125,0.72917 -1.3125,0 -2.44271,-2.33333 -1.13021,-2.33334 -1.13021,-5.43229 0,-2.26042 0.72917,-3.90105 0.76563,-1.64062 2.33333,-4.08333 2.44271,-3.53646 3.97396,-5.03125 1.56771,-1.53125 3.28125,-1.53125 1.05729,0 1.78646,0.4375 0.72917,0.40104 0.72917,1.13021 0,0.76562 -1.34896,2.51562 -1.3125,1.75 -3.35417,3.60938 -1.09375,1.05729 -2.07812,2.625 -0.98438,1.53125 -0.98438,2.22396 0,0.98437 0.76563,0.98437 0.61979,0 3.13541,-2.55208 2.51563,-2.55208 5.50521,-5.54167 3.02604,-3.02604 5.57813,-4.99479 2.58854,-2.00521 4.375,-2.00521 1.09375,0 1.78645,0.83854 0.72917,0.80209 0.72917,2.00521 0,0.80209 -1.09375,2.91667 -1.09375,2.07812 -3.20833,5.17708 -2.07813,3.0625 -5.39583,7.4375 z"
         style="font-size:74.66666412px;fill:#525252;fill-opacity:1"
         id="path4574" />
      <path
         d="m 241.23958,121.72206 v -2.55208 q 5.10417,-5.54167 8.78646,-10.42709 3.71875,-4.88541 5.86979,-7.76562 2.15104,-2.880209 3.79167,-4.046875 1.64062,-1.203125 4.11979,-1.203125 1.23958,0 1.23958,0.947916 0,0.765625 -1.02083,2.260417 -0.98437,1.494787 -2.55208,3.062497 -2.07813,2.04167 -4.08334,5.14063 -1.96875,3.0625 -4.48437,7.83854 1.96875,-1.53125 4.52083,-3.60938 2.58854,-2.11458 4.19271,-3.28125 1.64063,-1.20312 3.20833,-1.89583 1.60417,-0.69271 3.20834,-0.69271 1.02083,0 1.3125,0.36459 0.32812,0.36458 0.32812,1.42187 0,2.77083 -1.34896,5.43229 -1.34895,2.625 -3.86458,5.46875 -2.51562,2.84375 -6.19792,6.19792 1.27605,0.47396 2.625,0.47396 4.22917,0 11.33855,-6.45313 v 2.625 q -2.77084,2.47917 -5.4323,4.66667 -2.625,2.1875 -4.95833,3.5 -2.33333,1.3125 -4.30208,1.3125 -0.72917,0 -1.56771,-0.18229 -0.80208,-0.14584 -1.49479,-0.36459 -0.69271,-0.2552 -1.78646,-0.6927 -1.09375,-0.4375 -1.67708,-0.6198 -1.16667,0.29167 -1.3125,0.29167 -1.27605,0 -2.98959,-1.02083 -1.20312,2.33333 -2.66146,6.01562 -1.42187,3.71875 -2.40625,5.90625 -0.98437,2.1875 -2.62499,4.19271 -0.91146,0.91146 -1.27605,0.91146 -1.5677,0 -1.5677,-2.77084 0,-2.40625 0.98437,-5.03125 0.94792,-2.58854 2.36979,-4.92187 1.38542,-2.33333 3.0625,-4.70312 1.67708,-2.40625 2.36979,-3.57292 5.76042,-9.91667 8.96875,-16.88021 -8.38541,10.20833 -12.6875,14.65625 z m 14.80209,1.78646 q 3.60937,-3.79167 5.35937,-6.45313 1.78646,-2.66145 1.78646,-4.08333 0,-1.34896 -1.34896,-1.34896 -1.82292,0 -5.14062,3.02604 -3.28125,2.98959 -6.78125,8.09375 2.69791,-0.29166 3.60937,-0.18229 0.91146,0.0729 2.51563,0.94792 z"
         style="font-size:74.66666412px;fill:#525252;fill-opacity:1"
         id="path4576" />
      <path
         d="m 289.43749,118.25852 v 2.69792 q -7.61979,10.09895 -12.39583,10.09895 -2.58854,0 -4.08333,-2.80729 -1.45834,-2.84375 -1.45834,-7.4375 0,-3.71875 1.75,-8.82291 1.75,-5.14063 4.66667,-10.39063 2.95313,-5.286457 6.08854,-9.187499 3.17188,-3.937499 5.86979,-5.505208 1.09375,-0.65625 1.71355,-0.65625 0.76562,0 1.02083,0.692709 0.25521,0.65625 0.25521,2.296875 0,5.067708 -4.11979,12.468753 -4.1198,7.36458 -11.48438,15.05729 -0.36458,1.89583 -0.36458,2.91666 0,2.33334 0.98437,3.79167 1.02084,1.45833 2.80729,1.45833 0.91146,0 1.96875,-0.6927 1.0573,-0.72917 2.22396,-1.78646 1.16667,-1.05729 4.55729,-4.19271 z m -10.90104,-6.5625 q 1.89584,-1.85938 3.64584,-4.22917 1.78645,-2.36979 3.35416,-5.06771 1.56771,-2.697912 2.44271,-4.848954 0.91146,-2.151041 0.91146,-3.244791 0,-0.838542 -0.58333,-0.838542 -0.21875,0 -0.83855,0.401042 -2.22395,1.822916 -4.99479,7.145835 -2.77083,5.28646 -3.9375,10.68229 z"
         style="font-size:74.66666412px;fill:#525252;fill-opacity:1"
         id="path4578" />
      <path
         d="m 294.90624,119.97206 v 0.91146 q 0,2.15104 1.0573,3.35417 1.05729,1.20312 2.77083,1.20312 1.78646,0 3.68229,-0.83854 1.93229,-0.83854 3.82813,-2.22396 1.89583,-1.38542 4.6302,-3.71875 v 2.22396 q -4.11979,4.95833 -7.72916,7.61979 -3.60938,2.625 -7.32813,2.625 -3.24479,0 -5.14062,-2.51562 -1.89584,-2.51563 -1.89584,-6.89063 0,-3.82812 1.78646,-6.92708 1.78646,-3.13542 5.83334,-6.59896 2.77083,-2.36979 5.5052,-3.57292 2.73438,-1.20312 4.88542,-1.20312 1.71354,0 2.69792,0.80208 1.02083,0.76563 1.02083,2.33333 0,2.29688 -1.71354,4.59375 -1.71354,2.26042 -5.25,4.52084 -3.5,2.22396 -8.64063,4.30208 z m 0.36459,-2.36979 q 3.28125,-1.27604 5.61458,-3.17188 2.33333,-1.89583 3.42708,-3.60937 1.13021,-1.75 1.13021,-2.55208 0,-0.83855 -0.76562,-0.83855 -0.65625,0 -2.15104,0.83855 -1.45834,0.83854 -2.98959,2.1875 -1.49479,1.34895 -2.69791,3.17187 -1.20313,1.82292 -1.56771,3.97396 z"
         style="font-size:74.66666412px;fill:#525252;fill-opacity:1"
         id="path4580" />
    </g>
    <flowRoot
       xml:space="preserve"
       id="flowRoot4554"
       style="font-style:normal;font-weight:normal;font-size:40px;line-height:1.25;font-family:sans-serif;letter-spacing:0px;word-spacing:0px;fill:#000000;fill-opacity:1;stroke:none"
       transform="scale(0.26458333)"><flowRegion
         id="flowRegion4556"><rect
           id="rect4558"
           width="239.40616"
           height="60.609154"
           x="6.0609155"
           y="86.103172" /></flowRegion><flowPara
         id="flowPara4560"></flowPara></flowRoot>    <g
       aria-label="ANGULAR APPLICATION"
       transform="matrix(0.26458333,0,0,0.26458333,-6.3074777,-12.61023)"
       style="font-style:normal;font-variant:normal;font-weight:300;font-stretch:normal;font-size:16px;line-height:1.25;font-family:'Nirmala UI';-inkscape-font-specification:'Nirmala UI Light';letter-spacing:6px;word-spacing:0px;fill:#7e7e7e;fill-opacity:1;stroke:none"
       id="flowRoot4562">
      <path
         d="m 33.964844,120.71871 -1.234375,-3.3125 h -4.804688 l -1.203125,3.3125 h -1.15625 l 4.265625,-11.20312 h 1.046875 l 4.242188,11.20312 z m -3.414063,-9.24219 q -0.05469,-0.14843 -0.117187,-0.34375 -0.05469,-0.19531 -0.09375,-0.44531 h -0.03125 q -0.04687,0.25 -0.109375,0.44531 -0.05469,0.19532 -0.109375,0.34375 l -1.8125,4.98438 h 4.101562 z"
         style=""
         id="path4583" />
      <path
         d="m 50.566406,120.71871 -6.21875,-8.99219 q -0.117187,-0.17187 -0.234375,-0.35156 -0.109375,-0.17969 -0.179687,-0.35156 h -0.03906 q 0.01563,0.14062 0.02344,0.39062 0.01563,0.25 0.01563,0.625 v 8.67969 h -1.039063 v -11.20312 h 1.148438 l 6.117187,8.88281 q 0.140625,0.21094 0.25,0.39844 0.117188,0.17968 0.210938,0.33593 h 0.03906 q -0.03125,-0.25781 -0.04687,-0.57812 -0.01563,-0.32031 -0.01563,-0.71094 v -8.32812 h 1.046875 v 11.20312 z"
         style=""
         id="path4585" />
      <path
         d="m 68.785156,119.94527 q -1.726562,0.96875 -3.65625,0.96875 -1.21875,0 -2.1875,-0.41406 -0.96875,-0.42187 -1.648437,-1.16406 -0.679688,-0.75 -1.046875,-1.78125 -0.359375,-1.03906 -0.359375,-2.28125 0,-0.82031 0.171875,-1.57813 0.179687,-0.75781 0.515625,-1.42187 0.34375,-0.66406 0.835937,-1.20313 0.492188,-0.53906 1.125,-0.92968 0.640625,-0.39063 1.40625,-0.60157 0.765625,-0.21093 1.648438,-0.21093 1.664062,0 2.96875,0.59375 v 1.14843 q -1.4375,-0.79687 -3.09375,-0.79687 -1.023438,0 -1.851563,0.375 -0.828125,0.375 -1.414062,1.03125 -0.578125,0.65625 -0.898438,1.55469 -0.320312,0.89062 -0.328125,1.9375 -0.0078,1.03906 0.265625,1.92187 0.28125,0.875 0.828125,1.51563 0.546875,0.64062 1.351563,1 0.804687,0.35937 1.859375,0.35937 1.421875,0 2.46875,-0.59375 v -3.41406 h -2.546875 v -0.94531 h 3.585937 z"
         style=""
         id="path4587" />
      <path
         d="m 85.308594,116.21871 q 0,4.69531 -4.125,4.69531 -3.929688,0 -3.929688,-4.52343 v -6.875 h 1.039063 v 6.78125 q 0,1.84375 0.742187,2.75781 0.742188,0.91406 2.296875,0.91406 2.9375,0 2.9375,-3.5625 v -6.89062 h 1.039063 z"
         style=""
         id="path4589" />
      <path
         d="m 94.082031,120.71871 v -11.20312 h 1.039063 v 10.25781 h 4.5 v 0.94531 z"
         style=""
         id="path4591" />
      <path
         d="m 115.24609,120.71871 -1.23437,-3.3125 h -4.80469 l -1.20312,3.3125 h -1.15625 l 4.26562,-11.20312 h 1.04688 l 4.24218,11.20312 z m -3.41406,-9.24219 q -0.0547,-0.14843 -0.11719,-0.34375 -0.0547,-0.19531 -0.0937,-0.44531 h -0.0312 q -0.0469,0.25 -0.10937,0.44531 -0.0547,0.19532 -0.10938,0.34375 l -1.8125,4.98438 h 4.10157 z"
         style=""
         id="path4593" />
      <path
         d="m 130.27734,120.71871 -1.6875,-3.21094 q -0.25,-0.47656 -0.48437,-0.79687 -0.23438,-0.32031 -0.48438,-0.50781 -0.25,-0.19532 -0.53906,-0.27344 -0.28125,-0.0859 -0.63281,-0.0859 h -1.23438 v 4.875 h -1.03906 v -11.20312 h 3.22656 q 0.63282,0 1.21875,0.1875 0.59375,0.1875 1.05469,0.55468 0.46094,0.36719 0.73438,0.92188 0.28125,0.55469 0.28125,1.28906 0,0.59375 -0.17969,1.09375 -0.17969,0.5 -0.51563,0.89063 -0.32812,0.38281 -0.80468,0.65625 -0.46875,0.26562 -1.0625,0.39843 v 0.0312 q 0.22656,0.0937 0.41406,0.24219 0.1875,0.14844 0.35937,0.35938 0.17969,0.21093 0.35157,0.48437 0.17187,0.27344 0.35937,0.625 l 1.88281,3.46875 z m -5.0625,-10.25 v 4.42969 h 1.85938 q 0.5625,0 1.03125,-0.16406 0.46875,-0.16407 0.79687,-0.46875 0.33594,-0.30469 0.51563,-0.73438 0.1875,-0.42969 0.1875,-0.96875 0,-0.97656 -0.63281,-1.53125 -0.625,-0.5625 -1.8125,-0.5625 z"
         style=""
         id="path4595" />
      <path
         d="m 157.02734,120.71871 -1.23437,-3.3125 h -4.80469 l -1.20312,3.3125 h -1.15625 l 4.26562,-11.20312 h 1.04688 l 4.24218,11.20312 z m -3.41406,-9.24219 q -0.0547,-0.14843 -0.11719,-0.34375 -0.0547,-0.19531 -0.0937,-0.44531 h -0.0312 q -0.0469,0.25 -0.10937,0.44531 -0.0547,0.19532 -0.10938,0.34375 l -1.8125,4.98438 h 4.10157 z"
         style=""
         id="path4597" />
      <path
         d="m 166.99609,116.35934 v 4.35937 h -1.03906 v -11.20312 h 2.89063 q 0.88281,0 1.5625,0.21875 0.67968,0.21875 1.14843,0.63281 0.46875,0.41406 0.71094,1.01562 0.24219,0.60157 0.24219,1.375 0,0.78125 -0.27344,1.44532 -0.27344,0.65625 -0.78906,1.14062 -0.50781,0.47656 -1.24219,0.75 -0.73437,0.26563 -1.66406,0.26563 z m 0,-5.89063 v 4.9375 h 1.48438 q 1.44531,0 2.19531,-0.67187 0.75,-0.67188 0.75,-1.89844 0,-2.36719 -2.76562,-2.36719 z"
         style=""
         id="path4599" />
      <path
         d="m 181.83984,116.35934 v 4.35937 h -1.03906 v -11.20312 h 2.89063 q 0.88281,0 1.5625,0.21875 0.67968,0.21875 1.14843,0.63281 0.46875,0.41406 0.71094,1.01562 0.24219,0.60157 0.24219,1.375 0,0.78125 -0.27344,1.44532 -0.27344,0.65625 -0.78906,1.14062 -0.50781,0.47656 -1.24219,0.75 -0.73437,0.26563 -1.66406,0.26563 z m 0,-5.89063 v 4.9375 h 1.48438 q 1.44531,0 2.19531,-0.67187 0.75,-0.67188 0.75,-1.89844 0,-2.36719 -2.76562,-2.36719 z"
         style=""
         id="path4601" />
      <path
         d="m 195.64453,120.71871 v -11.20312 h 1.03906 v 10.25781 h 4.5 v 0.94531 z"
         style=""
         id="path4603" />
      <path
         d="m 210.12109,120.71871 h -1.03906 v -11.20312 h 1.03906 z"
         style=""
         id="path4605" />
      <path
         d="m 226.58203,120.30465 q -1.29687,0.60937 -2.96094,0.60937 -1.1875,0 -2.15625,-0.41406 -0.96875,-0.42187 -1.65625,-1.16406 -0.67968,-0.74219 -1.05468,-1.76563 -0.36719,-1.02343 -0.36719,-2.23437 0,-1.27344 0.39062,-2.36719 0.39844,-1.10156 1.13282,-1.90625 0.73437,-0.8125 1.77343,-1.27344 1.04688,-0.46093 2.34375,-0.46093 1.42969,0 2.55469,0.4375 v 1.10937 q -1.20312,-0.60156 -2.57031,-0.60156 -1.08594,0 -1.92969,0.375 -0.84375,0.375 -1.42187,1.04687 -0.57813,0.66407 -0.88282,1.57813 -0.30468,0.90625 -0.30468,1.98437 0,0.96875 0.27343,1.82813 0.27344,0.85156 0.80469,1.49219 0.53906,0.64062 1.33594,1.01562 0.79687,0.375 1.85156,0.375 1.61719,0 2.84375,-0.67969 z"
         style=""
         id="path4607" />
      <path
         d="m 242.24609,120.71871 -1.23437,-3.3125 h -4.80469 l -1.20312,3.3125 h -1.15625 l 4.26562,-11.20312 h 1.04688 l 4.24218,11.20312 z m -3.41406,-9.24219 q -0.0547,-0.14843 -0.11719,-0.34375 -0.0547,-0.19531 -0.0937,-0.44531 h -0.0312 q -0.0469,0.25 -0.10937,0.44531 -0.0547,0.19532 -0.10938,0.34375 l -1.8125,4.98438 h 4.10157 z"
         style=""
         id="path4609" />
      <path
         d="m 253.22266,110.46871 v 10.25 h -1.03907 v -10.25 h -3.22656 v -0.95312 h 7.5 v 0.95312 z"
         style=""
         id="path4611" />
      <path
         d="m 265.33984,120.71871 h -1.03906 v -11.20312 h 1.03906 z"
         style=""
         id="path4613" />
      <path
         d="m 278.83203,120.91402 q -1.21094,0 -2.17969,-0.4375 -0.96875,-0.44531 -1.64843,-1.21093 -0.67188,-0.76563 -1.03907,-1.79688 -0.35937,-1.03906 -0.35937,-2.22656 0,-1.3125 0.35937,-2.39844 0.36719,-1.09375 1.0625,-1.86719 0.69532,-0.78125 1.70313,-1.21093 1.00781,-0.4375 2.29687,-0.4375 1.1875,0 2.13282,0.42968 0.94531,0.42188 1.60937,1.17969 0.66406,0.75 1.01563,1.78125 0.35937,1.03125 0.35937,2.24219 0,1.27344 -0.35156,2.36719 -0.34375,1.08593 -1.02344,1.88281 -0.67187,0.79687 -1.66406,1.25 -0.98438,0.45312 -2.27344,0.45312 z m 0.0859,-10.64062 q -1.01563,0 -1.80469,0.39062 -0.78125,0.38282 -1.32031,1.04688 -0.53906,0.65625 -0.82031,1.54687 -0.27344,0.88282 -0.28125,1.88282 -0.008,0.95312 0.24218,1.82812 0.25782,0.86719 0.76563,1.53906 0.51562,0.66407 1.29687,1.0625 0.78125,0.39844 1.82813,0.39844 1.04687,0 1.83594,-0.35937 0.79687,-0.36719 1.32812,-1.00782 0.53125,-0.64843 0.79688,-1.53906 0.27343,-0.89062 0.27343,-1.94531 0,-0.98438 -0.24218,-1.86719 -0.23438,-0.88281 -0.74219,-1.53906 -0.5,-0.66406 -1.28125,-1.04688 -0.78125,-0.39062 -1.875,-0.39062 z"
         style=""
         id="path4615" />
      <path
         d="m 300.06641,120.71871 -6.21875,-8.99219 q -0.11719,-0.17187 -0.23438,-0.35156 -0.10937,-0.17969 -0.17969,-0.35156 h -0.0391 q 0.0156,0.14062 0.0234,0.39062 0.0156,0.25 0.0156,0.625 v 8.67969 h -1.03906 v -11.20312 h 1.14844 l 6.11719,8.88281 q 0.14062,0.21094 0.25,0.39844 0.11718,0.17968 0.21093,0.33593 h 0.0391 q -0.0312,-0.25781 -0.0469,-0.57812 -0.0156,-0.32031 -0.0156,-0.71094 v -8.32812 h 1.04687 v 11.20312 z"
         style=""
         id="path4617" />
    </g>
  </g>
</svg>
